<svg width="55" height="90" viewBox="0 0 1813 2973" fill="none" xmlns="http://www.w3.org/2000/svg">
<path d="M1543 1609C1542.5 1608.97 1537.91 1616.22 1537.94 1619.97C1538.25 1660.61 1539.93 1701.27 1539.23 1741.88C1538.25 1799.11 1528.25 1855.31 1515.59 1910.99C1498.13 1987.81 1477.27 2063.83 1443.84 2135.29C1423.62 2178.5 1398.87 2219.78 1373.94 2260.58C1334.98 2324.33 1293.84 2386.74 1254.23 2450.11C1237.73 2476.51 1222.56 2503.76 1207.23 2530.87C1186.63 2567.29 1154.43 2585.78 1114.33 2593.05C1092.15 2597.07 1070.74 2593.82 1049.31 2588.51C1024.97 2582.48 1000.68 2576.22 976.184 2570.94C905.108 2555.6 836.875 2561.72 773.354 2599.73C755.369 2610.49 738.258 2622.76 719.986 2632.98C703.488 2642.21 686.488 2651.08 668.751 2657.42C639.988 2667.71 587.461 2661.32 563.522 2621.76C543.92 2589.37 527.138 2555.23 509.874 2521.48C497.785 2497.84 489.065 2472.24 475.087 2449.87C458.155 2422.76 433.424 2396.28 409.5 2368C357.374 2306.39 349.949 2286.73 267.725 2232.11C185.5 2177.5 157.465 2129.43 114.5 2042.5C89.0231 1990.95 78.0383 1945.56 65.3276 1898.27C54.3561 1857.45 49.9484 1814.79 43.7155 1772.78C31.7356 1692.05 51.8787 1614.96 73.6735 1538.65C88.2347 1487.67 107.387 1438.01 124.018 1387.61C140.747 1336.91 157.067 1286.08 173.238 1235.2C182.73 1205.33 193.83 1175.73 200.165 1145.18C208.571 1104.63 208.758 1063.57 201.83 1022.07C196.629 990.897 195.461 958.745 195.674 927.052C196.047 871.682 197.451 816.237 201.007 760.99C205.61 689.46 220.508 619.569 242.924 551.528C258.087 505.501 281.651 463.893 317.384 430.404C344.656 404.843 369.401 387.106 410.5 373.5C425.483 368.54 436.728 364.442 452.5 365C469.761 365.61 494.147 379.882 494.147 379.882C494.147 379.882 502.446 380.869 506.595 381.362C506.858 380.334 507.12 379.306 507.382 378.278C497.376 368.098 484.161 363.036 470.885 359.508C436.659 350.412 402.151 343.55 366.226 344.123C343.78 344.481 321.162 341.457 298.811 338.507C273.377 335.15 251.394 323.064 232.562 306.145C218.96 293.925 206.809 280.066 194.274 266.69C184.912 256.7 181.411 244.127 179.657 230.897C178.64 223.229 182.845 220.726 189.437 220.956C203.514 221.446 217.639 223.345 231.639 222.622C262.653 221.02 293.706 219.091 324.557 215.634C417.36 205.236 493.282 234.012 547.78 311.525C559.913 328.782 568.153 348.778 578.172 367.52C581.253 373.284 580.113 373.809 584 369C584 356.015 574.5 330.5 585.121 330.5C587.45 329.138 625.986 320.882 625.986 320.882C625.986 320.882 703.967 306.859 743.177 301.435C798.18 293.826 853.625 292.596 909.088 293.839C925.084 294.198 943.054 294.075 962 297C983.801 300.366 1013.5 309.5 1013.5 309.5C1013.5 309.5 1039.51 357.87 1041.16 358.401C1042.67 357.319 1045.5 356.166 1045.45 355.167C1045.28 351.972 1044.52 348.603 1043.14 345.708C1029.05 316.16 1016.25 285.916 992.834 261.839C958.256 226.283 933.78 185.1 924.172 135.783C919.436 111.472 916.302 87.1647 921.668 62.6318C922.56 58.5565 925.473 52.3744 928.277 51.884C932.163 51.2044 937.95 53.9055 940.987 57.0372C966.784 83.6409 991.389 111.438 1017.82 137.384C1052.78 171.715 1068.49 214.38 1077.05 261.193C1083.23 294.99 1091.22 328.458 1098.6 362.03C1099.33 365.35 1101.41 368.374 1104.92 370.731C1104.92 360.137 1104.92 349.544 1104.92 336.46C1117.03 342.625 1128.46 347.698 1139.15 354.034C1170.46 372.6 1201.17 391.71 1226.53 418.755C1271.1 466.298 1302.54 520.428 1313.7 585.077C1316.11 599.019 1317.17 614.263 1314.11 627.841C1308.85 651.235 1314.56 670.728 1327.58 689.326C1349.83 721.097 1366.91 755.084 1373.25 793.839C1379.04 829.176 1376.55 864.471 1373.15 899.768C1372.21 909.551 1370.43 919.254 1369.47 929.036C1366.63 957.893 1354.91 983.081 1339.06 1006.96C1327.67 1024.12 1317.68 1042.2 1307.1 1059.9C1306.36 1061.14 1305.97 1062.58 1306.81 1065.48C1311.08 1062.89 1322.5 1055 1322.5 1055L1347 1029C1359.55 1035.72 1381 1069.5 1381 1069.5L1410 1106.5L1424.5 1119C1424.5 1119 1435.27 1123.26 1440.31 1124.7C1458.72 1129.99 1471.73 1122.29 1474.89 1103.18C1476.37 1094.23 1476.32 1084.9 1475.96 1075.78C1471.26 955.823 1481.1 837.301 1509.73 720.488C1519.69 679.859 1535.65 641.609 1553.52 604.05C1556.57 597.629 1576.37 561.424 1581 556C1583.74 571.956 1585.34 596.77 1586.14 623C1586.67 640.398 1586.14 667 1586.14 667C1586.14 667 1588.19 677.644 1589.21 682.681C1590.27 682.775 1591.32 682.869 1592.37 682.963C1593.7 673.074 1595.66 663.222 1596.24 653.288C1598.51 614.751 1600.2 576.178 1602.54 537.646C1602.81 533.251 1604.9 528.173 1607.81 524.874C1619.71 511.366 1631.8 497.951 1644.79 485.511C1649.9 480.613 1657.54 478.358 1664.03 474.899C1665.26 481.756 1667.23 488.572 1667.61 495.476C1671.32 563.211 1674.6 630.969 1678.39 698.7C1679.79 723.876 1680.62 749.248 1684.49 774.095C1698.38 863.173 1719.15 950.786 1742.42 1037.86C1758.71 1098.8 1767.52 1161.1 1771.76 1224C1773.46 1249.14 1776.5 1298.5 1776.5 1298.5C1776.5 1298.5 1778.08 1326.88 1769 1339C1759.5 1351.69 1722 1388.5 1722 1388.5C1722 1388.5 1672.56 1446.77 1646.5 1488C1620.44 1529.23 1611.9 1543.08 1595 1581C1580.72 1613.04 1564.5 1664 1564.5 1664C1564.5 1664 1563 1668 1560 1670C1560 1670 1559.5 1648.5 1560 1633.5C1560.12 1630 1559.5 1627.5 1558 1623C1555.37 1615.12 1551.5 1609.5 1543 1609Z" fill="#AA96E3"/>
<path d="M665.5 2679C678.191 2679 679.127 2674.17 691.5 2677C709 2681 708.214 2733 723.767 2758.19C746.975 2795.78 764.047 2836.8 768.184 2881.49C769.401 2894.63 766.739 2908.92 762.543 2921.59C757.564 2936.63 740.733 2941.5 727.198 2932.84C712.435 2923.4 701.046 2911.55 690.997 2897.62C688.125 2893.64 681.696 2888.18 678.818 2889.14C673.878 2890.79 669.227 2896.33 666.634 2901.37C661.021 2912.26 658.442 2925 651.639 2934.94C637.552 2955.53 615.135 2953.61 604.64 2930.84C598.729 2918.01 594.372 2903.68 593.057 2889.67C589.115 2847.68 594.402 2806.59 611.715 2767.74C621.215 2746.42 625.499 2711 621 2679C640.999 2679 648.121 2679 665.5 2679ZM1162.5 2603C1165.94 2601.78 1169.52 2602.44 1171.5 2605.5C1176.97 2613.96 1180.84 2620.49 1180.88 2620.55C1202.98 2652.19 1235.62 2663.44 1271.9 2667.56C1332.12 2674.4 1385.44 2697.73 1433.01 2734.84C1442.56 2742.3 1452.21 2749.65 1461.3 2757.64C1467.41 2763.02 1474.59 2769.67 1469.39 2778.55C1464.65 2786.64 1455.64 2784.84 1447.94 2782.69C1430.31 2777.79 1412.93 2771.98 1395.2 2767.52C1378.72 2763.38 1361.94 2760.5 1345.27 2757.13C1343.04 2756.67 1340.73 2756.5 1338.44 2756.36C1324.38 2755.51 1317.93 2764.72 1325.04 2777.05C1329.35 2784.53 1335.72 2791.05 1342 2797.14C1352.81 2807.63 1364.83 2816.91 1375.23 2827.76C1380.92 2833.7 1385.58 2841.37 1388.45 2849.1C1392.19 2859.16 1385.14 2866.76 1374.41 2865.13C1369.38 2864.36 1364.1 2862.53 1359.85 2859.77C1315.99 2831.24 1267.59 2811.79 1220.63 2789.42C1182.83 2771.41 1145.47 2752.46 1108.25 2733.27C1084.92 2721.25 1065.5 2703.87 1049.92 2682.95C1044.17 2675.22 1040.96 2664.72 1039.32 2655.02C1036.99 2641.2 1047.36 2634.25 1060.36 2639.51C1067.64 2642.45 1074.95 2645.34 1082.18 2648.42C1091.28 2652.29 1099.48 2656.74 1097.65 2669.13C1097.35 2671.21 1100.02 2673.72 1102.45 2678.04C1109.67 2661.52 1101.28 2649.64 1102.45 2631.5C1102.89 2624.65 1102.45 2622 1104 2614C1104.54 2611.22 1140 2611 1162.5 2603Z" fill="#EB9B84"/>
<path d="M795.32 767.99C824.128 768.208 852.932 769.198 881.731 770.122C884.593 770.214 887.422 771.378 889.785 771.932C883.534 787.353 877.421 802.432 871.021 818.266C869.785 833.491 862.032 843.58 852.329 854.186C822.891 886.36 786.511 905.162 745.759 918.963C699.771 934.537 653.984 933.165 607.537 924.742C603.999 924.1 598.657 920.088 598.323 917.166C594.98 887.955 592.499 858.644 589.85 829.354C589.743 828.17 590.386 826.916 590.988 824.415C594.806 826.68 598.05 828.6 601.29 830.526C670.067 871.415 751.023 847.02 785.836 775.197C787.425 771.919 792.106 767.967 795.32 767.99ZM771.314 480.574C790.317 483.585 803.907 496.544 816.691 509.391C829.522 522.285 840.291 537.234 852.2 551.566V524.096C853.316 523.545 854.432 522.995 855.548 522.444C859.679 526.965 864.525 531.021 867.818 536.087C883.023 559.478 889.712 586.105 895.539 612.904C897.982 624.14 899.051 635.675 901.002 648.802C904.082 643.157 906.31 638.319 909.206 633.922C915.346 624.596 920.376 624.923 925.261 635.044C936.353 658.024 934.692 682.001 930.23 706.098C929.164 711.857 926.825 717.468 926.411 723.243C925.263 739.221 912.898 747.098 903.129 756.879C902.162 757.847 900.293 758.431 898.883 758.362C880.68 757.477 862.494 756.085 844.283 755.546C827.621 755.053 810.932 755.441 793.655 755.441C794.978 748.089 796.603 741.424 797.331 734.663C806.458 649.852 758.56 579.169 675.279 557.569C628.517 545.442 584.234 556.554 544.109 581.753C528.903 591.302 516.239 605.25 503.516 618.268C496.57 625.375 492.346 634.914 499.03 645.073C505.059 654.238 514.279 653.65 524.455 651.939C523.4 658.219 522.201 663.871 521.531 669.584C515.349 722.302 532.616 766.94 568.749 804.83C572.88 809.163 575.162 813.013 574.626 819.299C571.877 851.554 575.476 883.417 581.27 916.143C581.005 917.207 580.486 917.744 580.48 917.75C559.617 914.379 542.104 904.04 525.117 892.073C477.041 858.205 447.973 811.365 433.879 755.37C424.014 716.174 427.913 676.868 441.365 638.685C453.497 604.249 469.028 571.322 493.842 544.321C524.548 510.91 562.596 489.877 608.35 484.229C668.808 476.767 722.935 495.524 774.621 524.267C781.722 528.216 788.201 533.287 795.126 537.945C786.157 519.895 777.052 501.572 767.947 483.248C769.069 482.357 770.192 481.465 771.314 480.574ZM1186.99 720.821C1194.6 715.502 1222.75 718.788 1229.31 726.647C1229.4 730.987 1229.59 734.13 1230.1 737.22C1232.77 753.43 1235.52 769.627 1238.24 785.829C1210.38 821.143 1174.24 843.333 1129.9 849.812C1115.94 851.852 1100.89 847.468 1086.5 845.024C1078.69 843.697 1076.05 837.89 1074.4 829.593C1071.79 816.465 1066.27 803.846 1061.25 791.304C1059.42 786.714 1055.51 782.956 1051.19 776.936C1059.58 779.742 1065.51 782.041 1071.61 783.713C1110.17 794.284 1143.64 783.206 1167.92 751.382C1173.64 743.889 1177.93 735.307 1182.88 727.229C1184.21 725.047 1185.07 722.167 1186.99 720.821ZM1057.32 474.123C1086.66 458.524 1118.28 457.164 1149.02 471.942C1214.54 503.438 1261.92 551.559 1283.94 622.145C1290.73 643.905 1290.51 666.592 1284.47 688.048C1277.29 713.573 1266.71 738.144 1257.61 763.128C1256.32 762.896 1255.04 762.665 1253.76 762.434C1252.59 757.324 1251.54 752.187 1250.24 747.111C1248.87 741.74 1247.68 736.264 1245.68 731.119C1238.54 712.757 1229.57 706.759 1209.94 706.676C1203.8 706.65 1197.66 706.671 1190.66 706.671C1199.94 672.236 1198.1 639.009 1187.22 606.095C1188.84 604.86 1190.06 603.794 1191.41 602.921C1202.51 595.718 1204.47 587.595 1197.2 576.464C1183.52 555.54 1162.23 545.085 1139.86 537.181C1113.43 527.842 1086.3 526.558 1058.71 533.327C1033.93 539.408 1015.63 553.042 1004.14 575.769C993.089 597.626 986.272 620.739 983.981 646.1C982.976 676.095 988.429 703.591 1004.13 728.588C995.037 725.738 986.062 723.629 977.761 719.983C974.403 718.509 971.576 714.051 970.107 710.321C955.862 674.154 942.887 637.787 942.289 598.031C941.959 576.129 938.662 554.217 944.983 532.704C946.936 526.058 950.197 519.795 952.859 513.357C953.806 513.394 954.754 513.43 955.702 513.467C957.267 516.442 958.603 519.574 960.476 522.341C961.819 524.325 963.882 525.823 965.624 527.537C967.141 525.688 969.128 524.053 970.088 521.949C972.927 515.73 975.091 509.197 978.019 503.024C981.749 495.163 987.581 489.927 998.825 490.324C998.825 495.728 998.736 501.301 998.867 506.869C998.922 509.228 999.439 511.577 999.747 513.93C1002.27 513.124 1005.24 512.917 1007.24 511.419C1023.93 498.937 1039.16 483.779 1057.32 474.123Z" fill="#D2C2FF"/>
<path d="M1210 1252.5C1234.27 1236.8 1236.82 1210.94 1238.19 1185.04C1238.98 1170.01 1238.14 1154.9 1237.79 1138.93C1240.87 1137.75 1244.42 1136.55 1247.48 1137.3C1290.95 1148 1324.72 1172.2 1347.76 1210.78C1366.49 1242.15 1379 1275.76 1381.15 1312.5C1382.7 1339.2 1375.63 1364.35 1364.67 1388.52C1342.33 1437.77 1312.09 1482.19 1280.11 1525.43C1261.61 1550.45 1241.53 1574.31 1221.95 1598.52C1218.79 1602.42 1214.53 1605.44 1209.69 1609.87C1209.69 1594.72 1209.28 1581.48 1209.82 1568.28C1210.28 1556.87 1212.38 1545.51 1212.58 1534.11C1212.65 1530.25 1209.77 1523.7 1207.1 1523.05C1202.89 1522.02 1196.14 1523.43 1193.24 1526.46C1182.6 1537.57 1173.77 1550.43 1163.01 1561.4C1147.88 1576.8 1132.08 1591.64 1115.64 1605.62C1109.44 1610.9 1100.93 1614.16 1092.93 1616.45C1082.52 1619.43 1076.17 1615.05 1075.52 1603.97C1074.92 1593.66 1077.24 1583.22 1077.49 1572.81C1077.62 1567.13 1078.11 1558.36 1074.98 1556.34C1068.37 1552.07 1063.96 1559.43 1060.59 1564.49C1044.96 1587.95 1029.61 1611.59 1014.17 1635.18C1000.79 1655.62 986.071 1674.97 964.755 1687.76C958.685 1691.4 951.023 1692.38 944.092 1694.59C943.11 1688.28 941.297 1681.96 941.344 1675.66C941.41 1666.56 942.982 1657.47 943.6 1648.36C943.946 1643.25 943.662 1638.09 943.662 1632.96C942.265 1632.56 940.868 1632.16 939.471 1631.76C918.677 1661.46 897.882 1691.16 877.088 1720.85C875.614 1720.25 874.14 1719.64 872.666 1719.03C883.533 1674.33 894.399 1629.63 905.266 1584.94C904.415 1584.61 903.565 1584.28 902.714 1583.96C897.485 1593.33 891.781 1602.46 887.169 1612.13C883.224 1620.39 877.975 1621.57 869.698 1619.1C851.451 1613.68 838.643 1601.42 827.036 1587.3C817.572 1575.79 808.02 1564.35 798.507 1552.87C797.289 1553.56 796.07 1554.25 794.852 1554.94C796.755 1559.18 798.369 1563.59 800.608 1567.65C815.01 1593.75 829.866 1619.61 843.873 1645.92C848.751 1655.09 852.324 1665.11 855.242 1675.11C857.815 1683.92 854.256 1686.89 845.363 1683.95C823.068 1676.6 805.525 1661.62 787.759 1647.12C778.118 1639.25 768.867 1630.91 759.343 1622.89C757.8 1621.6 755.745 1620.91 752.833 1621.19C755.36 1624.71 758.284 1628.02 760.325 1631.8C763.678 1638.02 761.083 1642.88 754.238 1641.7C737.578 1638.82 720.436 1636.58 704.731 1630.74C659.901 1614.07 618.997 1590.02 581.846 1559.72C580.917 1560.06 579.988 1560.41 579.059 1560.75C580.236 1563.85 580.851 1567.34 582.68 1569.98C594.772 1587.48 607.335 1604.66 619.256 1622.27C622.608 1627.23 624.327 1633.28 625.558 1639.96C594.569 1627.62 570.884 1605.44 545.521 1584.68C551.588 1601.37 565.216 1615.71 562.361 1637.12C531.553 1619.56 507.983 1596.37 487.794 1567.36C486.074 1570.47 484.053 1573.8 482.337 1577.28C470.802 1600.68 470.152 1604.09 448.773 1584.8C423.807 1562.28 400.117 1537.74 379.26 1511.4C346.916 1470.54 320.943 1425.4 310.569 1373.52C298.826 1314.79 306.189 1258.15 340.482 1208.06C372.672 1161.05 419.596 1143.66 475.711 1149.49C503.585 1152.38 535.845 1162.01 561.5 1176C560.124 1188.05 564.5 1213.5 564.5 1213.5C564.5 1213.5 574.248 1277.66 597.5 1310C611.365 1329.28 616.111 1339.68 637.5 1350C653 1357.48 695 1359.5 724 1352.5C770.99 1337.71 793.518 1335.44 834.5 1307.5C842.301 1302.18 856.39 1278.66 865 1282C870.786 1284.24 893.608 1294.67 899.5 1296.5C909.716 1299.67 931.794 1299.97 952 1296.5C976.193 1292.34 986.185 1276.87 1010.5 1273.5C1029.87 1270.81 1054.73 1274.78 1060.5 1276C1089.97 1282.23 1114.42 1279.93 1148 1273.5C1173.1 1268.7 1184.66 1268.89 1210 1252.5Z" fill="#D2C2FF"/>
<path d="M587.316 628.57C616.725 594.875 662.329 595.662 698.617 616.629C740.273 640.698 760.103 698.306 743.833 743.613C743.079 745.715 738.821 753.77 737 756C672.129 727.557 634.649 720.528 634.5 720.5C634.5 720.5 595 723 566 671.5C565.454 654.731 577.046 640.338 587.316 628.57ZM1031.87 599.047C1065.59 560.869 1130.92 575.462 1145.7 625.508C1150.94 643.222 1149.62 662.873 1151.02 682.374C1144.59 650.838 1134.74 641.661 1102.07 637.503C1094.01 636.478 1086 635.082 1077.28 632.908C1077.12 630.769 1078.18 629.55 1078.11 628.394C1077.86 623.863 1077.26 619.352 1076.78 614.834C1072.13 616.244 1066.91 616.775 1062.98 619.312C1059.05 621.848 1056.41 626.39 1053.21 630.053C1047.13 630.404 1041.02 630.482 1034.97 631.165C1023 632.517 1015.94 639.621 1012.43 651.577C1012.76 632.245 1018.63 614.04 1031.87 599.047Z" fill="#705FAA"/>
<path d="M739.183 768.572C743.493 767.396 748.295 768.018 753.817 767.849C758.951 767.848 763.147 767.847 767.595 767.847C745.293 828.155 656.552 854.01 593.45 805.669C597.733 791.082 600.509 789.915 613.137 797.398C654.964 822.185 697.895 813.597 727.217 775.057C729.749 771.729 734.873 769.748 739.183 768.572ZM540.357 656.972C556.952 595.098 625.294 560.269 687.173 581.475C751.919 603.665 793.01 678.14 777.581 744.834C775.777 752.633 773.082 757.013 764.031 755.886C757.268 755.045 750.27 756.253 743.418 755.845C741.673 755.742 740.085 752.968 739.519 750.496C741.7 747.59 743.08 745.713 743.834 743.612C760.103 698.305 740.273 640.697 698.616 616.628C662.329 595.661 616.725 594.873 587.315 628.569C577.045 640.336 567.813 653.145 567.701 669.985C567.69 669.986 567.493 669.997 566.948 670.2C565.897 672.116 565.407 673.823 564.917 675.53C556.347 691.987 557.059 709.07 561.884 726.262C567.538 746.411 576.668 764.774 591.573 780.283C587.604 784.987 583.866 789.418 578.859 795.351C572.194 787.079 564.891 779.369 559.136 770.638C536.065 735.636 529.503 697.443 540.357 656.972ZM1166.86 723.4C1166.06 725.503 1165.61 726.682 1164.84 728.453C1141.4 765.495 1109.13 779.157 1069.85 767.917C1059.79 765.038 1050.64 758.968 1041.07 754.364C1041.35 753.044 1041.62 751.724 1041.9 750.404C1047.53 750.815 1053.6 750.008 1058.71 751.848C1081.5 760.048 1102.88 756.96 1120.22 740.952C1131.19 730.82 1143.16 726.969 1156.76 724.881C1159.86 724.405 1162.97 723.97 1166.86 723.4ZM1026.9 572.326C1051.77 538.701 1095.05 533.134 1129.15 557.517C1157.68 577.91 1172.18 607.094 1178.58 640.756C1182.5 661.352 1181.12 681.776 1175.75 702.069C1174.24 707.763 1171.72 710.217 1165.85 710.735C1158.78 711.359 1151.81 713.093 1144.62 714.378C1146.67 704.189 1148.61 694.518 1150.93 683.244C1149.62 662.873 1150.94 643.221 1145.7 625.507C1130.92 575.461 1065.59 560.868 1031.87 599.047C1018.63 614.04 1012.76 632.244 1012 652.14C1007.81 683.263 1019.77 709.796 1036.26 734.789C1027.65 740.075 1022.37 737.385 1018.64 729.462C1002.79 695.738 986.413 661.637 1000.3 623.382C1006.81 605.456 1015.6 587.596 1026.9 572.326Z" fill="#E5D697"/>
<path d="M924.745 758.328C951.091 735.919 984.541 725.745 1016.27 755.025C1048.44 784.709 1071.16 818.624 1068.12 863.555C1063.8 927.407 1046.12 987.478 1008.54 1040.45C1005.91 1044.17 999.499 1051 999.499 1051C999.488 1051.01 997.208 1053.61 995.499 1055C993.526 1056.61 989.999 1058.5 989.999 1058.5C989.97 1058.53 980.986 1067 972.634 1067C956.711 1064.87 959.812 1049.8 960.999 1035C963.886 999.011 950.652 978.073 932.999 947.5C926.637 936.481 895.999 898 895.999 898C895.969 897.953 878.472 870.685 877.499 851C875.953 819.698 904.483 776.026 904.499 776C904.499 776 919.073 763.153 924.745 758.328ZM877.499 892.5C877.725 889.791 881.458 890.987 881.499 891L901.731 935.475C909.077 956.001 916.729 976.428 924.787 996.685C929.779 1009.23 931.097 1009.48 944.069 1005.63C944.421 1007.53 945.612 1009.78 944.96 1011.15C942.339 1016.7 939.147 1021.97 936.166 1027.34C931.945 1023.9 925.994 1021.32 923.823 1016.88C916.959 1002.85 909.768 985.645 903.499 970.5C896.752 956.075 875.499 916.5 877.499 892.5Z" fill="#EB9B84"/>
<path d="M935.737 977.974C937.895 983.538 940.284 988.315 941.319 993.369C941.799 995.716 939.648 998.602 938.69 1001.24C936.093 1000.01 932.176 999.455 931.133 997.424C927.271 989.903 924.117 981.986 921.14 974.051C915.124 958.019 909.397 941.878 905.041 925.021C917.175 941.334 926.392 959.259 935.737 977.974Z" fill="#7F4435"/>
<path d="M849 1178.5C852.842 1168.51 856.784 1162.17 859.837 1151.94C868.706 1122.23 888.844 1103.71 919.651 1103.14C939.633 1102.77 960.492 1105.23 979.581 1110.99C1014.19 1121.43 1027.83 1158.43 1011.81 1191.72C1008.97 1197.64 1005.2 1203.34 1012.22 1212.15C1015.97 1204.33 1022 1191 1022 1191C1022 1191 1026.19 1170.89 1025 1158C1023.51 1141.81 1014.48 1126.01 1011.81 1118.5C1009.15 1110.99 1013.5 1106 1013.5 1106C1013.5 1106 1017.99 1099.4 1021.35 1096.15C1044.87 1073.37 1068.34 1050.5 1092.65 1028.57C1104.32 1018.04 1118.02 1010.46 1134.43 1008.41C1152.99 1006.08 1167.09 1012.79 1180.38 1025.34C1204.98 1048.58 1216.2 1078.08 1222.59 1110.01C1224.96 1121.83 1227.5 1150 1227.5 1150C1227.5 1150 1231 1192.5 1224 1216C1221 1226.07 1206.4 1250.96 1191 1254C1155.5 1261 1142.3 1265.32 1110.5 1267C1094.9 1267.82 1070.5 1267 1070.5 1267L1047 1264L1022.5 1257.5H1014.5C1014.5 1257.5 976.456 1288.53 933.5 1290.5C933.5 1290.5 910.901 1290.44 897 1287C884.152 1283.82 865.5 1274.5 865.5 1274.5C861.5 1274 858.5 1275 858.5 1275C858.5 1275 843.132 1290.86 832 1299.5C818.219 1310.2 794 1323 794 1323C794 1323 745.36 1342.33 712.5 1346.5C685.575 1349.92 670.06 1355.13 643 1346.5C627.609 1341.59 623.653 1330.07 613.5 1317.5C578.523 1274.21 575.515 1228.98 574.715 1180.37C574.072 1141.22 590.014 1125.16 631.797 1120.5C667.505 1116.51 703.112 1122.46 738.184 1129.01C768.674 1134.71 830 1150 830 1150C830 1150 840.723 1152.92 845 1158C850.403 1164.42 848.258 1182.64 849 1178.5ZM1027.79 1216.5C1027.79 1216.5 1044.98 1213.43 1056 1211.5C1102.98 1203.29 1122.5 1199.5 1122.5 1199.5C1122.5 1199.5 1168.63 1195.43 1171 1208C1172.4 1215.41 1164.5 1224.5 1164.5 1224.5C1174.58 1225.22 1185.08 1220.9 1188.28 1213.08C1191.9 1204.29 1189.4 1192.2 1180.75 1186.67C1173.81 1182.23 1165.43 1178.49 1157.36 1177.67C1111.47 1172.99 1070.23 1188.15 1030.81 1209.64C1029 1210.63 1027.79 1216.5 1027.79 1216.5ZM824.5 1254C823.559 1251.97 825.01 1248.86 823.641 1248.51C815.136 1246.35 806.502 1244.57 797.82 1243.27C760.798 1237.71 724.178 1239.89 688.186 1250.2C674.2 1254.21 661.299 1260.68 651.803 1272.22C642.416 1283.63 645.748 1297.07 659.502 1302.3C667.392 1305.29 675.69 1307.45 683.99 1308.98C686.611 1309.46 688.188 1307.05 692.5 1305.5C692.5 1305.5 682.342 1306.01 677 1303C671.814 1300.08 667.481 1297.93 667 1292C666.548 1286.42 667.315 1286.1 670.5 1281.5C675 1275 696.586 1268.59 714.5 1264C736.163 1258.45 771.5 1258.5 771.5 1258.5C771.5 1258.5 817.5 1254.5 824.5 1254ZM966.913 1232.25C949.655 1235.49 932.34 1241.56 915.156 1241.2C897.917 1240.85 880.809 1234.1 863.644 1230.15C863.214 1231.37 862.784 1232.59 862.354 1233.81C881.427 1247.21 900.047 1262.31 925.692 1260.7C950.506 1259.14 970.725 1247.91 986.479 1229.18C986.029 1228.11 985.578 1227.05 985.127 1225.98C979.555 1227.91 973.984 1229.84 966.913 1232.25Z" fill="#6DBAD4"/>
<path d="M1236.46 1125.7C1284.57 1124.7 1320.73 1147.69 1348.32 1184.53C1378.78 1225.21 1394.32 1271.68 1393.65 1322.87C1393.31 1348.45 1386.3 1372.73 1374.95 1395.46C1363.71 1417.98 1351.15 1439.86 1338.6 1462.8C1337.58 1463.9 1337.39 1464.33 1337.44 1464.87C1336.56 1466.31 1335.68 1467.74 1334.07 1470.11C1332.43 1472.88 1331.5 1474.72 1330.58 1476.55C1330.58 1476.55 1330.69 1476.67 1330.07 1476.94C1304.91 1512.43 1281.01 1548.13 1255.53 1582.66C1244.76 1597.26 1231.11 1609.89 1217.74 1622.31C1214.26 1625.53 1206.03 1626.75 1201.65 1624.91C1198.03 1623.4 1195.01 1616.05 1194.94 1611.24C1194.67 1593.91 1195.79 1576.57 1196.32 1559.23C1196.44 1555.33 1196.34 1551.41 1196.34 1547.5C1196.83 1548.5 1197.32 1549.49 1197.81 1550.49C1179.43 1567.28 1161.64 1584.78 1142.46 1600.59C1130.47 1610.47 1117.25 1619.86 1103.05 1625.83C1079.71 1635.64 1064.48 1624.51 1063.15 1599.35C1063.01 1596.65 1062.77 1593.96 1062.55 1590.81C1046.44 1613.83 1031.68 1636.67 1015.11 1658.1C1000.22 1677.36 982.702 1694.46 959.16 1703.25C939.227 1710.69 928.16 1701.15 931.824 1680.41C933.405 1671.46 934.906 1662.49 936.443 1653.53C928.152 1666.43 921.528 1680.27 913.245 1693.02C903.475 1708.07 892.806 1722.63 881.303 1736.38C878.493 1739.74 870.052 1741.31 865.78 1739.64C862.09 1738.2 858.888 1731.11 858.58 1726.33C857.984 1717.05 859.574 1707.63 860.236 1698.59C819.57 1697.57 798.221 1665.61 770.478 1642.83C765.97 1652.72 757.395 1654 747.722 1654.38C725.176 1655.27 704.071 1649.79 684.044 1640.3C666.619 1632.05 649.792 1622.53 632.291 1613.24C631.198 1612.8 630.514 1612.69 629.837 1612.37C629.844 1612.15 629.335 1611.94 629.335 1611.94C629.335 1611.94 629.965 1612.44 630.1 1612.91C630.486 1614.01 630.905 1614.5 631.649 1615.54C634.857 1623.09 638.744 1629.73 640.768 1636.89C644.182 1648.97 634.793 1658.77 623.117 1654.57C613.801 1651.22 605.329 1645.14 597.02 1639.49C590.321 1634.93 584.424 1629.19 576.62 1622.68C579.442 1634.83 581.347 1645.2 571.205 1651.58C561.024 1657.98 551.813 1652.05 544.402 1645.61C532.32 1635.12 520.751 1623.92 509.919 1612.15C502.739 1604.34 497.223 1595.01 489.843 1584.81C488.978 1589.6 488.504 1592.71 487.85 1595.78C483.947 1614.07 473.369 1620.01 456.145 1612.37C447.867 1608.7 439.824 1603.71 432.919 1597.85C377.961 1551.21 335.327 1495.44 309.729 1427.59C294.559 1387.38 289.391 1345.84 294.788 1302.94C298.376 1274.42 306.134 1247.22 317.14 1220.8C331.177 1196.07 347.766 1173.59 371.543 1157.09C404.259 1134.39 440.638 1128.78 479.336 1132.89C509.204 1136.06 536.81 1145.28 562.534 1163.46C566.235 1167.52 568.877 1170.82 571.52 1174.12C570.898 1174.79 570.276 1175.46 569.653 1176.13C566.887 1175.9 564.12 1175.67 561.091 1174.89C559.564 1173.43 558.299 1172.53 556.433 1171.28C530.659 1158.04 503.585 1152.38 475.712 1149.49C419.596 1143.66 372.673 1161.05 340.482 1208.06C306.19 1258.15 298.826 1314.78 310.57 1373.52C320.943 1425.4 346.916 1470.54 379.26 1511.4C400.117 1537.74 423.807 1562.28 448.773 1584.8C470.152 1604.09 470.802 1600.68 482.337 1577.28C484.053 1573.8 486.074 1570.47 487.794 1567.36C507.983 1596.37 531.554 1619.56 562.361 1637.12C565.217 1615.71 551.588 1601.37 545.521 1584.68C570.884 1605.44 594.569 1627.62 625.558 1639.96C624.327 1633.28 622.608 1627.23 619.256 1622.27C607.335 1604.66 594.772 1587.48 582.681 1569.98C580.851 1567.34 580.236 1563.85 579.059 1560.75C579.988 1560.41 580.917 1560.06 581.846 1559.72C618.997 1590.02 659.901 1614.07 704.731 1630.74C720.436 1636.58 737.578 1638.82 754.238 1641.7C761.083 1642.88 763.678 1638.02 760.325 1631.8C758.284 1628.02 755.361 1624.71 752.834 1621.19C755.745 1620.91 757.8 1621.6 759.343 1622.89C768.868 1630.91 778.118 1639.25 787.759 1647.12C805.525 1661.62 823.069 1676.6 845.364 1683.95C854.256 1686.89 857.815 1683.92 855.242 1675.11C852.324 1665.11 848.751 1655.09 843.873 1645.92C829.866 1619.61 815.011 1593.75 800.608 1567.65C798.369 1563.59 796.755 1559.18 794.852 1554.94C796.07 1554.25 797.289 1553.56 798.507 1552.87C808.02 1564.35 817.572 1575.79 827.036 1587.3C838.643 1601.42 851.451 1613.68 869.698 1619.1C877.975 1621.57 883.224 1620.39 887.169 1612.13C891.781 1602.46 897.485 1593.32 902.714 1583.96C903.565 1584.28 904.415 1584.61 905.266 1584.93C894.4 1629.63 883.533 1674.33 872.667 1719.03C874.14 1719.64 875.614 1720.24 877.088 1720.85C897.883 1691.16 918.677 1661.46 939.471 1631.76C940.868 1632.16 942.265 1632.56 943.662 1632.96C943.662 1638.09 943.946 1643.25 943.6 1648.36C942.982 1657.47 941.41 1666.56 941.344 1675.66C941.298 1681.96 943.11 1688.28 944.092 1694.59C951.023 1692.38 958.685 1691.4 964.755 1687.76C986.071 1674.97 1000.79 1655.62 1014.17 1635.18C1029.61 1611.59 1044.96 1587.95 1060.59 1564.48C1063.96 1559.43 1068.37 1552.07 1074.98 1556.34C1078.11 1558.36 1077.62 1567.13 1077.49 1572.81C1077.24 1583.21 1074.92 1593.66 1075.52 1603.97C1076.17 1615.05 1082.52 1619.43 1092.93 1616.45C1100.93 1614.16 1109.44 1610.9 1115.64 1605.62C1132.08 1591.64 1147.88 1576.8 1163.01 1561.4C1173.77 1550.43 1182.6 1537.57 1193.24 1526.46C1196.15 1523.43 1202.89 1522.02 1207.1 1523.05C1209.77 1523.7 1212.65 1530.25 1212.58 1534.11C1212.38 1545.51 1210.28 1556.87 1209.82 1568.28C1209.28 1581.48 1209.69 1594.72 1209.69 1609.87C1214.53 1605.44 1218.79 1602.42 1221.95 1598.52C1241.53 1574.31 1261.61 1550.45 1280.11 1525.43C1312.09 1482.19 1342.33 1437.77 1364.67 1388.52C1375.63 1364.35 1382.7 1339.2 1381.15 1312.5C1379 1275.76 1366.49 1242.15 1347.76 1210.78C1324.72 1172.2 1290.95 1148 1247.48 1137.3C1244.42 1136.55 1240.87 1137.75 1237.21 1137.35C1236.74 1133.01 1236.6 1129.35 1236.46 1125.7ZM868.591 1661.6C869.603 1661.67 871.415 1662.04 871.511 1661.78C874.713 1653.01 877.751 1644.18 880.771 1635.49C871.638 1633.84 863.79 1632.42 855.652 1630.95C859.949 1641.06 864.031 1650.67 868.591 1661.6Z" fill="#322754"/>
<path d="M561.353 1175.44C564.12 1175.67 566.886 1175.9 569.653 1176.13C570.275 1175.46 570.898 1174.79 571.52 1174.12C568.877 1170.82 566.234 1167.52 563.136 1163.68C564.56 1129.72 587.606 1109.59 625.78 1108.2C701.99 1105.43 775.276 1120.08 847.538 1144.9C847.515 1144.93 848.299 1144.31 848.592 1143.51C860.692 1110.5 884.88 1093.44 920.976 1092.73C932.758 1092.5 944.548 1092.65 957.41 1092.62C958.486 1092.62 959.088 1092.66 959.088 1092.66L959.57 1092.37C974.095 1096.88 988.62 1101.39 1003.73 1106.09C1024.87 1075.11 1052.35 1047.59 1081.79 1021.98C1089.89 1014.93 1098.83 1008.62 1108.11 1003.21C1132.56 988.935 1157.35 990.964 1179.3 1008.81C1203.24 1028.29 1217.29 1054.44 1226.74 1083.1C1231.11 1096.39 1233.22 1110.42 1236.4 1124.91C1236.6 1129.36 1236.74 1133.01 1237.45 1138.25C1238.14 1154.9 1238.98 1170.01 1238.19 1185.04C1236.82 1210.94 1232.92 1236.17 1209.66 1253.79C1200.72 1257.88 1192.82 1263.17 1184.12 1265.47C1140.38 1277.08 1095.46 1283.4 1050.98 1274.83C1025.49 1269.91 1004.78 1272.18 982.498 1284.82C958.093 1298.67 930.495 1303.62 902.613 1297.36C889.295 1294.37 876.887 1287.33 864.608 1282.34C815.127 1330.41 754.394 1354.1 686.018 1359.16C654.995 1361.46 627.481 1351.79 608.371 1325.53C575.872 1280.87 561.696 1230.27 561.353 1175.44ZM1012.52 1109.15C1012.63 1113.14 1011.34 1117.93 1013.09 1120.99C1020.5 1133.98 1025.77 1147.44 1025.24 1162.59C1024.92 1171.67 1023.97 1180.74 1022.36 1190.99C1019.17 1197.66 1015.97 1204.33 1012.22 1212.15C1005.2 1203.34 1008.97 1197.64 1011.81 1191.72C1027.83 1158.43 1014.19 1121.43 979.581 1110.99C960.492 1105.23 939.633 1102.77 919.651 1103.14C888.844 1103.71 868.706 1122.23 859.837 1151.94C856.784 1162.17 852.277 1171.97 848.344 1180.14C847.944 1157.27 847.306 1156.2 828.978 1149.72C798.73 1142.73 768.673 1134.71 738.184 1129.01C703.112 1122.46 667.505 1116.51 631.797 1120.5C590.014 1125.16 574.072 1141.22 574.715 1180.37C575.515 1228.98 587.837 1274.04 614.826 1316.07C625.825 1336.13 641.673 1349.66 665.506 1348.68C686.975 1347.81 708.884 1346.94 729.658 1342.06C774.208 1331.59 817.823 1317.62 849.663 1281.67C857.022 1273.36 863.169 1272.23 872.975 1276.96C923.496 1301.34 969.547 1289.92 1012.98 1258.56C1015.37 1256.83 1019.98 1256.38 1022.84 1257.39C1053.63 1268.23 1085.51 1267.77 1117.17 1265.37C1140.84 1263.58 1164.34 1258.86 1187.74 1254.53C1200.34 1252.21 1208.62 1243.08 1215.69 1232.79C1227.99 1214.88 1226.39 1194.09 1228.08 1174.07C1228.81 1165.42 1227.35 1156.59 1226.81 1146.05C1225.46 1134.03 1224.96 1121.83 1222.59 1110.01C1216.2 1078.08 1204.98 1048.58 1180.38 1025.34C1167.09 1012.79 1152.99 1006.08 1134.43 1008.41C1118.02 1010.46 1104.32 1018.04 1092.65 1028.57C1068.34 1050.5 1044.87 1073.37 1021.35 1096.15C1017.99 1099.4 1016.26 1104.33 1012.52 1109.15Z" fill="#27264D"/>
<path d="M692.783 1305.37C689.835 1306.67 686.611 1309.46 683.99 1308.98C675.69 1307.45 667.392 1305.29 659.502 1302.3C645.748 1297.07 642.416 1283.63 651.803 1272.22C661.3 1260.68 674.2 1254.21 688.186 1250.2C724.178 1239.89 760.798 1237.71 797.82 1243.27C806.502 1244.57 815.136 1246.35 823.641 1248.51C825.01 1248.86 825.584 1252.34 825.005 1254.41C818.96 1254.91 814.443 1255.48 809.909 1255.82C781.646 1257.96 753.176 1258.65 725.187 1262.68C708.061 1265.15 691.476 1272.2 675.091 1278.37C671.164 1279.85 666.417 1286.2 666.697 1289.97C667.029 1294.42 671.577 1300 675.814 1302.33C680.589 1304.95 687.053 1304.49 692.783 1305.37Z" fill="#25244B"/>
<path d="M1027.61 1216.71C1028.64 1214.29 1029 1210.63 1030.81 1209.64C1070.23 1188.15 1111.47 1172.99 1157.36 1177.67C1165.43 1178.49 1173.81 1182.23 1180.75 1186.67C1189.4 1192.2 1191.9 1204.29 1188.28 1213.08C1185.08 1220.9 1174.12 1226.74 1164 1224.82C1174.53 1208.18 1173.14 1203.58 1154.81 1200.59C1144.35 1198.88 1133.2 1198.57 1122.76 1200.16C1090.94 1205.02 1059.31 1211.11 1027.61 1216.71Z" fill="#25244A"/>
<path d="M967.662 1232.01C973.984 1229.84 979.556 1227.91 985.127 1225.98C985.578 1227.05 986.029 1228.11 986.479 1229.18C970.725 1247.91 950.506 1259.13 925.692 1260.7C900.047 1262.31 881.428 1247.21 862.354 1233.81C862.784 1232.59 863.214 1231.37 863.644 1230.15C880.809 1234.1 897.917 1240.85 915.156 1241.2C932.34 1241.56 949.655 1235.49 967.662 1232.01Z" fill="#25254B"/>
<path d="M462.512 570.927C478.682 545.926 497.397 523.219 523.178 507.583C562.244 483.89 604.534 473.139 650.445 475.948C696.817 478.785 738.045 495.136 776.139 520.753C776.548 521.028 777.303 520.787 777.62 520.787C772.953 511.688 767.264 502.88 763.953 493.254C762.071 487.785 761.755 478.677 764.985 475.408C768.311 472.041 777.519 471.741 782.901 473.642C802.899 480.708 817.903 495.083 831.637 510.742C835.721 515.398 839.33 520.469 843.207 525.414C853.384 512.51 858.026 511.833 868.341 525.329C875.971 535.311 882.497 546.784 886.704 558.595C894.309 579.946 899.814 602.045 905.555 621.646C910.722 621.097 917.193 620.41 924.683 620.624C929.913 628.893 934.126 636.262 937.369 641.933C935.216 616.735 932.919 589.854 930.622 562.973C933.911 547.393 935.972 531.414 940.861 516.354C945.07 503.39 950.497 502.037 964.127 503.469C966.811 503.751 970.507 501.104 972.605 498.784C976.305 494.693 978.906 489.631 982.38 485.307C987.627 478.776 995.341 475.574 1002.33 479.519C1005.88 481.521 1006.24 489.322 1007.84 494.565C1008.36 496.274 1008.23 498.182 1008.5 501.131C1016.58 493.753 1023.22 486.493 1030.99 480.784C1076.96 447.044 1124.98 441.594 1174.7 472.268C1230.11 506.454 1271.28 552.46 1289.64 616.135C1293.48 629.447 1293.71 643.798 1295.53 659.428C1293.21 699.804 1278.68 734.253 1260.15 767.529C1257.34 772.57 1258.08 779.585 1257.17 785.686C1258.13 802.076 1259.09 818.465 1260.01 836.58C1256.95 867.625 1246.68 880.061 1218.21 888.15C1174.12 900.678 1128.52 901.754 1083.28 905.279C1075.21 905.908 1072.02 908.583 1072.21 916.182C1064.85 937.821 1058.47 959.859 1049.85 980.983C1041.85 1000.59 1031.46 1019.22 1021.3 1039.2C1009.79 1053.51 998.93 1066.7 982.229 1073.05C965.064 1079.58 953.971 1073.6 950.479 1055.77C949.081 1048.64 948.307 1041.38 947.211 1033.92C929.625 1040.95 922.917 1038.61 915.653 1022.45C903.288 994.957 891.173 967.343 879.48 939.558C877.066 933.822 874.295 932.26 868.486 933.227C826.16 940.273 783.884 947.694 741.426 953.847C705.488 959.054 669.416 963.85 633.235 966.681C607.825 968.669 597.706 960.101 587.408 936.407C585.844 932.809 581.873 928.888 578.21 927.78C534.606 914.596 499.806 888.902 472.327 853.183C439.177 810.092 422.056 761.028 421.337 706.649C420.942 676.8 429.029 648.346 439.708 620.811C446.308 603.794 454.845 587.529 462.512 570.927ZM878.632 909.973C877.132 910.577 875.631 911.18 872.708 911.221C871.108 902.072 868.778 892.977 868.098 883.761C867.293 872.841 867.909 861.817 867.909 847.574C795.317 929.622 704.372 946.834 603.702 933.618C608.302 947.131 615.911 953.359 629.785 952.555C648.362 951.478 666.905 949.251 685.358 946.749C710.251 943.373 735.044 939.264 761.584 935.405C795.092 929.978 828.6 924.55 863.524 919.247C864.472 919.245 865.42 919.242 867.875 919.364C879.897 914.731 891.853 909.917 903.964 905.531C911.679 902.737 915.164 897.092 916.517 889.505C922.276 857.23 917.971 825.921 907.17 795.33C905.805 791.465 902.657 788.23 900.335 784.703C899.64 785.025 898.946 785.347 898.251 785.668C898.137 788.13 898.023 790.592 896.795 793.935C894.627 797.935 892.005 801.758 890.367 805.965C882.732 825.573 872.887 845.19 881.515 866.857C886.036 878.209 892.629 888.734 897.471 900.776C894.265 902.411 891.059 904.046 887.139 904.512C885.253 900.67 883.368 896.827 881.482 892.985C880.4 893.243 879.318 893.501 878.236 893.758C878.73 898.957 879.224 904.156 878.632 909.973ZM1191.16 881.532C1191.87 881.237 1192.59 880.941 1194.72 880.322C1196.61 879.891 1198.49 879.459 1201.54 879.521C1202.63 879.07 1203.72 878.62 1206.24 877.741C1235.23 871.628 1250.07 862.099 1249.93 822.235C1249.89 811.136 1249.23 799.978 1247.92 788.96C1245.33 767.301 1242.2 745.689 1229.55 725.427C1222.75 718.788 1194.6 715.501 1186.99 720.822C1185.07 722.167 1184.21 725.048 1182.88 727.229C1177.93 735.307 1173.64 743.889 1167.92 751.382C1143.64 783.206 1110.17 794.284 1071.61 783.713C1065.51 782.041 1059.58 779.742 1051.19 776.936C1055.51 782.956 1059.42 786.715 1061.25 791.304C1066.27 803.847 1071.79 816.466 1074.4 829.593C1076.05 837.89 1078.69 843.698 1086.5 845.025C1100.89 847.468 1115.94 851.853 1129.9 849.813C1174.24 843.333 1210.38 821.143 1239.55 786.471C1239.65 789.389 1239.74 792.306 1238.75 795.936C1230.33 803.675 1222.15 811.702 1213.43 819.098C1185.03 843.203 1152.12 856.091 1114.83 856.24C1102.43 856.29 1090.01 853.641 1076.89 852.145C1077.52 854.871 1078.17 857.649 1078.72 862.238C1078.72 872.484 1078.72 882.731 1078.72 893.924C1104.81 891.538 1131.13 889.392 1157.38 886.593C1166.83 885.585 1176.11 883.006 1186.72 881.161C1187.99 881.102 1189.25 881.044 1191.16 881.532ZM990.262 1057.99C990.262 1057.99 990.372 1057.47 991.42 1057.18C992.265 1056.54 993.11 1055.9 995.141 1054.99C996.207 1053.79 997.273 1052.6 999.449 1050.74C1002.5 1047.33 1005.91 1044.17 1008.55 1040.45C1046.12 987.478 1063.8 927.408 1068.12 863.556C1071.16 818.625 1048.44 784.71 1016.27 755.025C984.542 725.746 951.093 735.92 924.747 758.329C919.075 763.154 912.788 770.135 914.856 779.946C920.304 805.783 926.77 831.5 930.346 857.605C932.788 875.429 935.297 894.289 923.694 911.876C920.821 914.453 917.947 917.03 914.704 919.938C916.4 922.453 917.859 924.538 919.238 926.674C928.106 940.412 937.063 954.094 945.791 967.92C962.295 994.067 961.56 1023.24 960.628 1052.51C960.235 1064.84 970.434 1070.6 981.172 1064.5C983.961 1062.91 986.361 1060.65 989.469 1058.65C989.469 1058.65 989.776 1058.22 990.262 1057.99ZM1077 632.5C1085.03 633.725 1094.01 636.478 1102.07 637.503C1134.74 641.661 1144.59 650.839 1150.55 684.848C1148.61 694.519 1146.67 704.189 1144.62 714.378C1151.81 713.094 1158.78 711.36 1165.85 710.736C1171.72 710.218 1174.24 707.764 1175.75 702.07C1181.12 681.777 1182.5 661.353 1178.58 640.757C1172.18 607.095 1157.68 577.911 1129.15 557.519C1095.05 533.136 1051.78 538.703 1026.9 572.327C1015.6 587.597 1006.81 605.457 1000.3 623.384C986.413 661.639 1002.79 695.739 1018.64 729.463C1022.37 737.386 1027.65 740.076 1036.26 734.79C1019.77 709.797 1007.81 683.264 1012.86 651.013C1015.94 639.621 1023 632.517 1034.97 631.165C1041.02 630.482 1047.75 628.943 1053.65 630C1051.52 634.69 1048.53 640.755 1046.74 645.575C1046.07 647.388 1046.13 651.151 1046.94 651.499C1048.87 652.326 1052.12 652.557 1053.65 651.425C1061.42 645.682 1067.84 638.071 1077 632.5ZM567.51 669.993C567.51 669.993 567.702 669.986 569.018 669.845C574.835 666.466 585.741 661.273 591.574 659.5C584.96 674.945 589.344 688.101 601.703 692.941C617.377 699.079 631.071 691.94 643.09 672.999C654.931 677.604 666.381 675.308 678.349 672.462C700.34 667.234 721.927 677.488 733.515 697.083C743.451 713.886 744.586 731.629 738.426 751.421C740.086 752.969 741.673 755.743 743.418 755.847C750.27 756.254 757.268 755.046 764.031 755.888C773.082 757.014 775.777 752.635 777.582 744.835C793.011 678.141 751.92 603.665 687.173 581.476C625.294 560.27 556.952 595.1 540.357 656.973C529.503 697.444 536.065 735.638 559.136 770.64C564.891 779.371 572.194 787.081 578.859 795.353C583.866 789.419 587.604 784.989 591.574 780.284C576.669 764.774 567.538 746.411 561.884 726.263C557.06 709.07 556.347 691.988 565.948 674.679C566.514 673.072 567.08 671.464 567.51 669.993ZM580.82 918.401C581.059 917.83 581.299 917.26 581.538 915.072C575.476 883.417 571.877 851.554 574.627 819.299C575.163 813.013 572.881 809.163 568.749 804.83C532.616 766.94 515.349 722.302 521.531 669.584C522.201 663.871 523.401 658.22 524.455 651.94C514.28 653.65 505.06 654.239 499.03 645.074C492.346 634.914 496.57 625.376 503.517 618.268C516.24 605.25 528.903 591.302 544.109 581.753C584.235 556.554 628.518 545.442 675.279 557.57C758.56 579.169 806.458 649.852 797.331 734.664C796.603 741.424 794.979 748.089 793.656 755.442C810.933 755.442 827.621 755.054 844.283 755.546C862.495 756.085 880.68 757.477 898.884 758.362C900.294 758.431 902.163 757.848 903.13 756.879C912.899 747.098 925.264 739.221 926.412 723.244C926.826 717.468 929.164 711.857 930.23 706.098C934.692 682.001 936.353 658.024 925.262 635.044C920.377 624.923 915.347 624.596 909.207 633.922C906.311 638.32 904.083 643.157 901.003 648.802C899.052 635.675 897.982 624.141 895.539 612.905C889.712 586.105 883.024 559.479 867.819 536.087C864.526 531.021 859.679 526.966 855.549 522.445C854.432 522.995 853.316 523.546 852.2 524.096C852.2 533.408 852.2 542.72 852.2 551.566C840.291 537.233 829.523 522.285 816.691 509.391C803.907 496.544 790.318 483.586 771.315 480.575C770.192 481.466 769.07 482.357 767.947 483.249C777.052 501.572 786.158 519.896 795.127 537.946C788.201 533.287 781.723 528.217 774.621 524.267C722.935 495.525 668.809 476.768 608.35 484.23C562.596 489.878 524.548 510.911 493.843 544.322C469.029 571.323 453.497 604.25 441.365 638.685C427.913 676.869 424.015 716.174 433.88 755.37C447.974 811.365 477.041 858.205 525.117 892.074C542.104 904.041 559.617 914.379 580.82 918.401ZM983.99 645.156C986.272 620.739 993.088 597.626 1004.14 575.768C1015.62 553.042 1033.93 539.407 1058.71 533.327C1086.3 526.557 1113.43 527.842 1139.86 537.181C1162.23 545.085 1183.52 555.54 1197.2 576.464C1204.47 587.595 1202.51 595.718 1191.41 602.921C1190.06 603.794 1188.84 604.86 1187.22 606.094C1198.1 639.009 1199.94 672.236 1190.66 706.671C1197.66 706.671 1203.8 706.649 1209.94 706.675C1229.57 706.758 1238.54 712.756 1245.68 731.119C1247.68 736.263 1248.86 741.739 1250.24 747.111C1251.54 752.186 1252.59 757.324 1253.76 762.434C1255.04 762.665 1256.32 762.897 1257.61 763.128C1266.71 738.144 1277.29 713.573 1284.47 688.048C1290.51 666.592 1290.73 643.906 1283.94 622.145C1261.92 551.559 1214.54 503.438 1149.02 471.943C1118.28 457.164 1086.66 458.524 1057.32 474.123C1039.16 483.779 1023.93 498.936 1007.24 511.419C1005.24 512.917 1002.27 513.124 999.747 513.93C999.439 511.576 998.922 509.228 998.866 506.869C998.735 501.301 998.824 495.727 998.824 490.324C987.58 489.926 981.749 495.163 978.019 503.025C975.091 509.197 972.927 515.729 970.088 521.949C969.128 524.053 967.141 525.688 965.624 527.537C963.882 525.823 961.819 524.325 960.476 522.341C958.603 519.574 957.267 516.442 955.701 513.466C954.754 513.43 953.806 513.393 952.859 513.357C950.197 519.795 946.935 526.057 944.983 532.704C938.662 554.217 941.958 576.129 942.288 598.031C942.887 637.787 955.862 674.155 970.107 710.322C971.576 714.052 974.403 718.509 977.761 719.983C986.061 723.629 995.036 725.738 1004.13 728.588C988.428 703.591 982.976 676.095 983.99 645.156ZM871.309 817.51C877.421 802.431 883.534 787.353 889.785 771.931C887.422 771.378 884.594 770.214 881.732 770.123C852.932 769.198 824.129 768.208 795.321 767.991C792.107 767.966 787.426 771.919 785.837 775.197C751.024 847.02 670.067 871.416 601.29 830.527C598.05 828.6 594.806 826.68 590.988 824.416C590.387 826.917 589.744 828.169 589.851 829.354C592.499 858.644 594.981 887.954 598.323 917.166C598.657 920.089 604 924.1 607.537 924.742C653.985 933.165 699.771 934.538 745.76 918.963C786.512 905.162 822.892 886.36 852.329 854.186C862.033 843.58 869.785 833.491 871.309 817.51ZM752.88 767.851C748.294 768.018 743.494 767.396 739.183 768.572C734.873 769.748 729.749 771.729 727.217 775.058C697.895 813.598 654.964 822.186 613.136 797.399C600.509 789.916 597.733 791.082 593.45 805.669C656.552 854.011 745.294 828.156 767.595 767.848C763.147 767.848 758.951 767.848 752.88 767.851ZM1165.16 727.862C1165.61 726.683 1166.06 725.505 1166.86 723.401C1162.97 723.971 1159.86 724.406 1156.76 724.882C1143.16 726.97 1131.19 730.821 1120.22 740.953C1102.88 756.961 1081.5 760.049 1058.71 751.85C1053.6 750.009 1047.53 750.817 1041.9 750.405C1041.63 751.725 1041.35 753.045 1041.07 754.365C1050.64 758.969 1059.79 765.039 1069.85 767.918C1109.13 779.158 1141.4 765.496 1165.16 727.862ZM687.201 753.552C701.722 742.631 709.47 728.195 709.96 709.633C690.097 739.875 661.537 752.357 623.631 749.306C638.254 763.166 668.799 764.352 687.201 753.552ZM905.514 973.674C911.511 988.128 916.96 1002.85 923.823 1016.88C925.995 1021.32 931.946 1023.9 936.167 1027.34C939.148 1021.97 942.339 1016.7 944.961 1011.15C945.613 1009.78 944.422 1007.53 944.069 1005.63C931.097 1009.48 929.779 1009.23 924.788 996.685C916.73 976.428 909.077 956.001 901.731 935.475C898.811 927.317 894.796 925.013 885.662 931.343C892.019 944.825 898.495 958.558 905.514 973.674ZM966.275 719.704C957.356 696.45 948.438 673.196 939.519 649.942C944.784 678.161 938.882 705.537 931.466 733.018C943.628 728.78 954.667 724.933 966.275 719.704ZM1131.26 690.481C1131.48 686.859 1131.7 683.237 1131.92 679.614C1129.84 679.614 1129.06 679.374 1128.6 679.662C1127.51 680.347 1126.29 681.098 1125.63 682.143C1111.62 704.287 1089.94 711.212 1065.44 712.87C1063.2 713.022 1061.07 714.918 1058.89 716.004C1059.15 716.889 1059.41 717.774 1059.67 718.659C1068.06 718.659 1076.46 718.573 1084.85 718.676C1105.5 718.931 1120.27 709.323 1131.26 690.481ZM935.414 977.301C926.392 959.259 917.175 941.334 905.041 925.021C909.397 941.878 915.124 958.019 921.14 974.052C924.117 981.986 927.271 989.903 931.133 997.424C932.176 999.455 936.093 1000.01 938.691 1001.24C939.649 998.602 941.799 995.716 941.319 993.37C940.284 988.315 937.895 983.538 935.414 977.301Z" fill="#322854"/>
<path d="M751.493 285.866C767.239 283.836 782.942 281.31 798.743 279.896C819.427 278.045 840.189 277.072 862.499 276.245C875.701 276.556 887.323 276.343 898.945 276.131C929.432 277.734 959.919 279.337 990.281 280.934C979.526 267.605 967.517 253.493 956.361 238.735C932.584 207.281 915.371 172.368 906.944 133.871C900.057 102.413 902.684 70.7951 912.356 40.0095C916.203 27.763 926.003 23.962 936.893 30.8351C943.137 34.7758 948.356 40.4897 953.607 45.8284C974.515 67.0861 995.316 88.4491 1016.04 109.886C1057.69 152.962 1086.05 202.631 1092.68 263.305C1094.24 277.541 1096.97 291.692 1100.05 305.685C1100.87 309.374 1104.34 313.423 1107.71 315.451C1132.33 330.274 1157.24 344.607 1182.02 359.167C1183.67 360.141 1184.98 361.71 1186.53 363.834C1186.47 364.86 1186.18 365.168 1186.22 365.231C1186.5 365.604 1186.85 365.92 1187.17 366.256C1187.17 366.256 1186.97 366.256 1187.33 366.66C1188.83 367.418 1189.96 367.772 1191.09 368.127C1191.09 368.127 1190.96 368.158 1191.11 368.762C1193.17 370.249 1195.08 371.131 1196.99 372.013C1196.99 372.013 1196.88 372.101 1196.88 372.643C1197.58 373.463 1198.28 373.742 1198.98 374.022C1198.98 374.022 1198.85 374.059 1198.84 374.765C1201.82 376.97 1204.8 378.469 1207.78 379.969C1208.17 379.881 1208.46 380.011 1208.62 381.349C1209.33 382.852 1210.06 383.365 1210.79 383.878C1210.79 383.878 1210.65 383.881 1210.48 384.513C1213.75 388.002 1217.19 390.859 1220.63 393.716C1220.63 393.716 1220.5 393.748 1220.54 394.07C1221.15 394.271 1221.72 394.151 1222.28 394.031C1239.46 413.214 1257.93 431.405 1273.52 451.802C1300.13 486.613 1316.27 526.72 1325.72 569.34C1331.04 593.308 1331.42 617.65 1328.86 642.182C1327.44 655.818 1332.2 668.072 1341.11 679.125C1369.68 714.559 1387.47 754.672 1391.83 800.372C1393.5 817.878 1396.78 835.296 1397.41 852.823C1398.85 892.826 1389.88 931.336 1378.43 969.367C1374.4 982.753 1369.88 996.129 1367.61 1009.84C1366.63 1015.73 1370.42 1022.61 1372.78 1028.76C1374.39 1032.98 1377.27 1036.7 1380.1 1041.87C1381.17 1043.16 1383.6 1046.08 1383.6 1046.08L1404.5 1072.5C1404.5 1072.5 1431 1114 1445.18 1107.09C1446.16 1106.45 1447.5 1106.39 1448.11 1105.16C1450.68 1100 1450.58 1091.21 1450.68 1084.22C1451.01 1061.91 1450.69 1039.6 1450.82 1017.29C1451.12 965.248 1455.75 913.565 1462.11 861.916C1467.87 815.085 1476.53 768.935 1488.7 723.421C1505.44 660.758 1527.94 600.236 1564.32 546.213C1583.62 517.551 1605.22 489.997 1634.01 469.511C1638 466.668 1642.07 463.82 1646.42 461.598C1669.16 449.987 1684.69 458.119 1686.78 483.338C1688.23 500.909 1688.39 518.591 1688.96 536.228C1690.34 578.748 1689.39 621.489 1693.51 663.738C1698.9 718.922 1706.01 774.15 1716.45 828.578C1731.84 908.797 1751.37 988.211 1768.06 1068.19C1778.73 1119.32 1788.62 1170.68 1796.64 1222.28C1801.8 1255.44 1803.73 1289.19 1797.4 1322.78C1794.07 1340.46 1785.45 1355.22 1774.08 1368.63C1748.73 1398.51 1721.66 1427.08 1698.19 1458.36C1662.39 1506.07 1630 1556.31 1607.5 1611.9C1591.55 1651.29 1577.55 1691.5 1563.76 1731.71C1560.14 1742.28 1559.94 1754.19 1559.18 1765.55C1553.64 1848.38 1538.75 1929.62 1513.97 2008.7C1499.23 2055.71 1484.77 2102.96 1463.16 2147.68C1440.87 2193.8 1416.26 2238.66 1389.59 2282.22C1369.07 2315.75 1342.83 2345.76 1321.71 2378.97C1291.03 2427.18 1262.87 2476.98 1233.24 2525.87C1221.58 2545.11 1208.98 2563.79 1196.57 2582.57C1193.35 2587.42 1189.24 2591.68 1184.95 2596.93C1192.05 2610.63 1201.35 2625.44 1216.06 2636.14C1230.23 2646.46 1246.99 2647.82 1263.46 2650.05C1331.22 2659.21 1395.62 2677.46 1448.9 2722.81C1463.92 2735.6 1476.05 2751.83 1489.24 2766.71C1495.26 2773.5 1495.71 2781.46 1492.08 2789.66C1488.25 2798.29 1480.49 2802.11 1472.19 2801.31C1460.6 2800.2 1449.24 2796.71 1437.78 2794.23C1412.57 2788.78 1387.35 2783.33 1361.02 2777.48C1359.17 2777.15 1358.44 2777.21 1357.7 2777.27C1358.31 2777.83 1358.93 2778.38 1359.55 2778.93C1376.9 2795.37 1394.78 2811.64 1404.74 2833.86C1409.18 2843.75 1412.22 2855.02 1412.61 2865.78C1413.19 2881.75 1399 2890.74 1381.84 2885.13C1365.42 2879.77 1349.44 2872.67 1333.9 2865.06C1303.31 2850.08 1273.42 2833.65 1242.73 2818.86C1215.61 2805.8 1187.35 2795.09 1160.43 2781.67C1120.9 2761.98 1081.05 2742.45 1049.42 2710.34C1033.92 2694.59 1025.7 2675.06 1022.15 2653.77C1020.99 2646.77 1022.99 2638.74 1025.32 2631.77C1029.26 2620.01 1039.79 2616.01 1054.45 2619.37C1062.45 2621.21 1070.42 2623.15 1078.4 2625.04C1079.09 2623.58 1079.79 2622.11 1080.48 2620.65C1076.35 2617.97 1072.54 2613.76 1068.06 2612.85C1028.4 2604.85 988.842 2595.9 948.831 2590.22C888.029 2581.59 828.383 2583.89 775.555 2621.3C764.37 2629.23 754.221 2638.62 742.959 2646.42C733.049 2653.28 722.249 2658.85 713.098 2664.26C714.484 2704.18 732.887 2737.49 750.907 2771.21C767.501 2802.27 778.079 2835.76 783.142 2870.6C785.183 2884.65 784.583 2899.22 783.868 2913.49C782.092 2948.91 738.677 2964.31 710.528 2940.17C702.172 2933 695.008 2924.43 687.478 2916.33C686.247 2915.01 685.953 2912.81 684.559 2909.38C679.798 2921.6 677.198 2930.37 673.102 2938.37C662.294 2959.49 641.646 2973.44 614.386 2962.76C600.681 2957.39 592.796 2945.44 587.484 2932.77C577.393 2908.69 575.115 2883.48 575.31 2857.1C575.658 2810.25 595.736 2768.94 606.928 2725.14C609.945 2713.34 609.807 2700.57 609.948 2688.23C610.044 2679.86 605.81 2672.61 597.107 2670.42C569.966 2663.59 552.659 2644.23 535.769 2623.93C516.713 2601.02 508.844 2572.52 496.1 2546.45C478.281 2510.01 461.914 2472.76 442.156 2437.4C431.969 2419.18 415.957 2404.16 402.29 2387.93C377.868 2358.93 352.777 2330.49 328.851 2301.09C315.015 2284.09 295.897 2274.56 278.897 2262.02C259.328 2247.58 239.333 2233.71 219.844 2219.17C184.892 2193.08 159.082 2158.88 136.215 2122.39C123.579 2102.23 112.515 2081.09 100.704 2059.45C100.557 2058.13 100.453 2057.75 100.356 2057.36C100.356 2057.36 100.499 2057.46 100.36 2056.92C99.5739 2055.41 98.9264 2054.46 98.2789 2053.5C98.2789 2053.5 98.4179 2053.54 98.5036 2052.86C93.2474 2040.8 87.9054 2029.41 82.5635 2018.03C82.5635 2018.03 82.7276 2018.06 82.6188 2017.75C82.3247 2016.69 82.1396 2015.94 81.9545 2015.2C81.6152 2015.5 81.2759 2015.79 80.9366 2016.09C68.6745 1982.31 54.8272 1948.99 44.5305 1914.62C29.9554 1865.96 22.4254 1815.93 19.2695 1765.02C15.9703 1711.81 23.0115 1659.89 34.1474 1608.36C56.0412 1507.06 92.1264 1410.03 124.505 1311.87C144.373 1251.63 162.319 1190.74 180.058 1129.83C187.884 1102.96 188.504 1075.35 183.979 1047.33C180.191 1023.87 178.719 999.967 177.329 976.196C175.42 943.543 172.959 910.795 173.653 878.15C174.499 838.365 177.811 798.598 181.068 758.907C186.431 693.547 200.405 629.647 216.686 566.315C228.082 521.983 244.79 479.824 273.941 443.449C298.953 412.237 330.093 389.704 366.74 374.319C376.285 370.312 385.729 366.061 394.894 360.309C376.836 360.309 358.766 359.863 340.725 360.405C306.714 361.425 275.906 351.847 246.223 335.655C216.378 319.374 194.503 295.131 174.154 269.029C163.883 255.855 159.927 240.483 161.486 223.782C162.317 214.878 169.055 206.017 177.874 205.325C192.083 204.211 206.426 204.925 220.695 204.404C236.341 203.833 252.047 203.453 267.586 201.726C304.981 197.571 342.339 192.518 380.054 195.144C433.008 198.832 479.062 219.371 519.947 252.958C538.258 268.001 553.143 285.419 564.373 306.091C567.005 310.935 569.924 313.705 575.956 312.64C611.964 306.282 648.01 300.135 685.486 294.312C708.45 291.76 729.971 288.813 751.493 285.866ZM292.999 2249.3C293.384 2249.68 293.769 2250.06 294.153 2250.44C293.876 2249.77 293.6 2249.11 293.09 2247.09C277.831 2219.35 261.901 2191.96 247.47 2163.8C226.478 2122.83 214.193 2078.53 200.118 2034.93C160.269 1911.49 136.483 1785.53 139.553 1655.23C140.856 1599.89 149.505 1545.7 163.632 1492.29C167.974 1475.87 172.496 1459.5 177.676 1441.82C184.725 1422.15 191.599 1402.43 198.924 1382.87C201.296 1376.54 206.058 1371.82 213.411 1374.92C220.271 1377.82 219.829 1384.22 217.95 1390.19C208.708 1419.58 199.617 1449.01 189.945 1478.25C164.304 1555.77 153.813 1635.08 160.014 1716.64C168.277 1825.33 188.967 1931.78 220.004 2036.02C258.182 2164.24 323.409 2276.93 417.636 2372.87C439.899 2395.54 458.155 2422.76 475.087 2449.87C489.065 2472.24 497.785 2497.84 509.874 2521.48C527.138 2555.23 543.92 2589.37 563.522 2621.76C587.461 2661.32 639.988 2667.71 668.752 2657.42C686.489 2651.08 703.488 2642.21 719.986 2632.98C738.258 2622.76 755.369 2610.49 773.354 2599.73C836.875 2561.72 905.108 2555.6 976.184 2570.94C1000.68 2576.22 1024.97 2582.48 1049.31 2588.51C1070.74 2593.82 1092.15 2597.07 1114.33 2593.05C1154.43 2585.78 1186.63 2567.29 1207.23 2530.87C1222.56 2503.76 1237.73 2476.51 1254.23 2450.11C1293.84 2386.74 1334.98 2324.33 1373.94 2260.58C1398.87 2219.78 1423.62 2178.5 1443.84 2135.29C1477.27 2063.83 1498.13 1987.81 1515.59 1910.99C1528.25 1855.31 1538.25 1799.11 1539.23 1741.88C1539.93 1701.26 1538.25 1660.61 1537.94 1619.97C1537.91 1616.22 1540.18 1612.45 1542.82 1608.8C1556.31 1609.62 1561.02 1624.72 1560.18 1639.4C1559.6 1649.5 1560.07 1659.65 1560.07 1669.78C1563.31 1666.83 1564.31 1663.8 1565.2 1660.74C1578.57 1614.96 1597.08 1571.31 1620.65 1529.9C1657.25 1465.61 1698.63 1404.94 1754.11 1354.94C1769.7 1340.89 1777.58 1322.89 1775.44 1299.51C1774.24 1274.34 1773.46 1249.14 1771.76 1224C1767.52 1161.09 1758.71 1098.8 1742.42 1037.86C1719.15 950.786 1698.38 863.173 1684.49 774.095C1680.62 749.248 1679.79 723.876 1678.39 698.7C1674.6 630.969 1671.33 563.211 1667.61 495.476C1667.23 488.572 1665.26 481.756 1664.03 474.899C1657.54 478.358 1649.9 480.613 1644.79 485.511C1631.8 497.951 1619.71 511.366 1607.81 524.874C1604.9 528.173 1602.81 533.251 1602.54 537.646C1600.2 576.178 1598.51 614.751 1596.24 653.288C1595.66 663.222 1593.7 673.074 1592.37 682.963C1591.32 682.869 1590.27 682.775 1589.21 682.681C1588.19 677.644 1587.16 672.607 1586.46 665.796C1584.91 630.187 1583.37 594.578 1581.82 558.969C1581.16 558.744 1580.5 558.519 1579.84 558.294C1575.4 567.231 1570.96 576.167 1565.52 586.136C1561.47 592.085 1556.58 597.629 1553.52 604.05C1535.65 641.609 1519.69 679.859 1509.73 720.488C1481.1 837.301 1471.26 955.823 1475.96 1075.78C1476.32 1084.9 1476.37 1094.23 1474.89 1103.18C1471.73 1122.29 1458.72 1129.99 1440.31 1124.7C1435.27 1123.26 1430.27 1121.71 1424.49 1119.13C1419.74 1115.19 1414.19 1111.9 1410.39 1107.2C1393.37 1086.15 1376.95 1064.62 1360.08 1043.44C1355.99 1038.31 1351.01 1033.89 1346.7 1029.41C1337.25 1039.58 1329.05 1048.4 1319.6 1057.72C1315.34 1060.31 1311.08 1062.89 1306.81 1065.48C1305.97 1062.58 1306.36 1061.14 1307.1 1059.9C1317.68 1042.2 1327.68 1024.12 1339.06 1006.96C1354.91 983.081 1366.63 957.893 1369.47 929.036C1370.43 919.254 1372.21 909.551 1373.15 899.768C1376.55 864.471 1379.04 829.176 1373.25 793.839C1366.91 755.084 1349.84 721.097 1327.58 689.325C1314.56 670.728 1308.85 651.235 1314.11 627.841C1317.17 614.263 1316.11 599.019 1313.7 585.077C1302.54 520.428 1271.1 466.298 1226.53 418.755C1201.17 391.71 1170.46 372.6 1139.15 354.034C1128.46 347.698 1117.03 342.625 1104.92 336.46C1104.92 349.544 1104.92 360.137 1104.92 370.731C1101.41 368.374 1099.33 365.35 1098.6 362.03C1091.22 328.458 1083.23 294.99 1077.05 261.193C1068.49 214.38 1052.78 171.715 1017.82 137.384C991.389 111.438 966.784 83.6409 940.987 57.0371C937.95 53.9054 932.163 51.2043 928.277 51.884C925.473 52.3744 922.56 58.5565 921.668 62.6318C916.302 87.1647 919.436 111.472 924.172 135.783C933.78 185.1 958.256 226.283 992.834 261.839C1016.25 285.916 1029.05 316.16 1043.14 345.708C1044.52 348.603 1045.28 351.972 1045.45 355.167C1045.5 356.166 1042.67 357.319 1040.73 357.641C1040.36 357.166 1039.87 356.867 1038.94 355.78C1038.49 355.291 1038.04 354.802 1037.35 352.946C1030.27 340.799 1023.35 328.555 1016 316.572C1014.02 313.35 1011.18 309.227 1008 308.421C991.66 304.28 975.081 301.085 957.029 297.051C941.049 295.942 925.084 294.198 909.088 293.839C853.625 292.596 798.18 293.826 743.177 301.435C703.967 306.859 665.04 314.326 624.365 320.803C611.394 324.156 598.345 327.246 585.532 331.121C583.399 331.767 580.816 335.931 580.978 338.295C581.665 348.3 583.309 358.24 584.476 369.497C581.234 373.294 581.253 373.284 578.172 367.52C568.153 348.778 559.913 328.782 547.78 311.525C493.282 234.012 417.36 205.236 324.558 215.634C293.706 219.091 262.653 221.02 231.639 222.622C217.639 223.344 203.514 221.446 189.437 220.956C182.845 220.726 178.64 223.229 179.657 230.897C181.411 244.127 184.912 256.7 194.274 266.69C206.809 280.066 218.96 293.925 232.562 306.145C251.394 323.064 273.377 335.15 298.811 338.507C321.162 341.457 343.78 344.481 366.226 344.123C402.151 343.55 436.659 350.412 470.885 359.508C484.161 363.036 497.376 368.098 507.382 378.278C507.12 379.306 506.858 380.334 506.595 381.362C502.446 380.869 498.297 380.375 493.217 378.826C487.436 376.556 481.548 374.523 475.894 371.971C454.65 362.383 433.912 364.336 411.981 374.41C375.739 385.112 344.656 404.843 317.384 430.404C281.651 463.893 258.087 505.501 242.924 551.528C220.508 619.569 205.61 689.46 201.007 760.99C197.451 816.237 196.047 871.682 195.674 927.052C195.461 958.745 196.629 990.897 201.83 1022.07C208.758 1063.57 208.571 1104.63 200.165 1145.18C193.83 1175.73 182.73 1205.33 173.238 1235.2C157.067 1286.08 140.747 1336.91 124.018 1387.61C107.387 1438.01 88.2347 1487.67 73.6735 1538.65C51.8787 1614.96 31.7356 1692.05 43.7155 1772.78C49.9484 1814.79 54.3561 1857.45 65.3276 1898.27C78.0383 1945.56 95.0726 1991.97 113.769 2037.3C146.431 2116.5 196.713 2182.75 268.574 2232.91C276.793 2238.11 285.011 2243.32 292.999 2249.3ZM702.49 2694.03C698.032 2678.82 695.414 2676.84 686.288 2677.78C669.521 2679.51 652.669 2680.48 635.832 2681.4C631.541 2681.64 627.176 2680.55 621.054 2679.87C622.883 2687.51 624.297 2693.42 625.519 2701.13C626.787 2724.55 621.215 2746.42 611.715 2767.74C594.402 2806.59 589.116 2847.68 593.057 2889.67C594.372 2903.68 598.728 2918.01 604.64 2930.84C615.134 2953.61 637.552 2955.53 651.639 2934.94C658.441 2925 661.02 2912.26 666.634 2901.37C669.227 2896.33 673.877 2890.79 678.818 2889.14C681.696 2888.18 688.125 2893.64 690.997 2897.62C701.046 2911.55 712.435 2923.4 727.198 2932.84C740.733 2941.5 757.564 2936.63 762.543 2921.59C766.739 2908.92 769.401 2894.64 768.184 2881.49C764.047 2836.8 746.974 2795.78 723.767 2758.19C711.427 2738.21 703.933 2718.33 702.49 2694.03ZM1102.97 2633.66C1103.48 2647.56 1109.67 2661.52 1102.45 2678.04C1100.02 2673.72 1097.35 2671.21 1097.65 2669.13C1099.48 2656.74 1091.28 2652.29 1082.18 2648.42C1074.95 2645.34 1067.64 2642.45 1060.36 2639.51C1047.36 2634.25 1036.99 2641.2 1039.32 2655.02C1040.96 2664.72 1044.17 2675.22 1049.92 2682.95C1065.5 2703.87 1084.92 2721.25 1108.25 2733.27C1145.47 2752.46 1182.83 2771.41 1220.63 2789.42C1267.59 2811.79 1315.99 2831.24 1359.85 2859.77C1364.1 2862.53 1369.38 2864.36 1374.41 2865.13C1385.14 2866.76 1392.19 2859.16 1388.45 2849.1C1385.58 2841.37 1380.92 2833.7 1375.23 2827.76C1364.84 2816.91 1352.81 2807.63 1342 2797.14C1335.72 2791.05 1329.35 2784.53 1325.04 2777.05C1317.93 2764.72 1324.38 2755.51 1338.44 2756.36C1340.73 2756.49 1343.04 2756.67 1345.27 2757.13C1361.94 2760.5 1378.72 2763.38 1395.2 2767.52C1412.93 2771.98 1430.31 2777.79 1447.94 2782.69C1455.64 2784.84 1464.65 2786.64 1469.39 2778.55C1474.59 2769.67 1467.41 2763.02 1461.3 2757.64C1452.21 2749.65 1442.56 2742.3 1433.01 2734.84C1385.44 2697.73 1332.12 2674.39 1271.9 2667.56C1235.62 2663.44 1202.98 2652.19 1180.49 2619.31C1178.13 2616.21 1175.35 2613.33 1173.48 2609.96C1169.58 2602.9 1164.62 2602.09 1157.24 2604.71C1148.75 2607.72 1139.79 2609.66 1130.88 2611.21C1122.29 2612.7 1113.51 2613.11 1104.45 2614.03C1104 2620.14 1103.57 2625.95 1102.97 2633.66Z" fill="#302652"/>
<path d="M1240.3 812.032C1240.04 806.423 1240.04 801.705 1239.94 796.104C1239.74 792.305 1239.65 789.387 1238.9 786.148C1235.52 769.626 1232.77 753.428 1230.1 737.218C1229.59 734.128 1229.4 730.985 1229.51 727.318C1242.2 745.687 1245.33 767.299 1247.92 788.958C1249.23 799.976 1249.89 811.135 1249.93 822.233C1250.07 862.098 1235.23 871.626 1204.94 877.818C1202.56 878.273 1201.47 878.65 1200.38 879.027C1198.49 879.458 1196.61 879.889 1193.29 880.339C1191.4 880.567 1190.96 880.776 1190.51 880.985C1189.25 881.043 1187.99 881.101 1186.09 881.151C1184.37 880.458 1183.28 879.774 1180.89 878.28C1185.18 876.479 1188.57 874.958 1192.03 873.631C1195.36 872.351 1198.77 871.24 1202.16 870.106C1237.16 858.403 1242.64 850.255 1240.3 812.032Z" fill="#F9F8F9"/>
<path d="M897.879 900.204C909.241 891.623 912.32 880.395 910.427 867.713C906.778 843.255 902.651 818.868 898.315 793.752C898.023 790.591 898.137 788.129 898.251 785.667C898.946 785.346 899.64 785.024 900.335 784.702C902.657 788.229 905.805 791.464 907.17 795.329C917.971 825.92 922.276 857.229 916.517 889.504C915.164 897.091 911.679 902.736 903.964 905.53C891.853 909.916 879.897 914.73 867.122 919.301C868.677 917.107 870.985 914.974 873.712 912.312C875.631 911.179 877.132 910.576 879.824 909.64C883.294 908.099 885.573 906.889 887.853 905.68C891.059 904.045 894.265 902.41 897.879 900.204Z" fill="#F9F7F5"/>
<path d="M709.961 709.632C709.471 728.194 701.721 742.631 686.586 753.947C668.799 764.352 638.253 763.165 623.631 749.305C661.537 752.356 690.098 739.874 709.961 709.632ZM1128.6 679.661C1129.06 679.374 1129.85 679.613 1131.92 679.613C1131.7 683.236 1131.48 686.858 1130.82 691.126C1120.27 709.322 1105.5 718.93 1084.85 718.676C1076.46 718.572 1068.06 718.659 1059.67 718.659C1059.41 717.774 1059.15 716.888 1058.89 716.003C1061.07 714.917 1063.2 713.022 1065.45 712.87C1089.94 711.212 1111.62 704.287 1125.63 682.142C1126.29 681.098 1127.51 680.346 1128.6 679.661ZM611.184 625.026C634.407 624.09 650.95 647.845 644.275 673.488C633.762 693.244 620.068 700.384 604.394 694.246C592.035 689.406 582.562 678.063 589.168 661.815C589.834 655.861 590.924 650.724 591.101 645.555C591.527 633.123 598.747 625.528 611.184 625.026ZM1065.07 613.01C1070.17 609.795 1077 603.168 1083 607.336C1088.63 611.248 1088.15 617.918 1087.83 624.653C1087.61 629.202 1087.19 635.767 1084.58 639.859C1077.35 651.205 1054.06 655.7 1054.06 655.7C1054 655.711 1047.27 656.91 1044.32 654.433C1041.1 651.734 1040.82 646.585 1041.07 643.662C1041.75 635.706 1044.47 630.108 1048.21 624.653C1052.48 618.443 1059.96 616.224 1065.07 613.01Z" fill="#F9F8F9"/>
</svg>
